<?xml version="1.0" encoding="UTF-8"?>
<svg id="Layer_1" data-name="Layer 1" xmlns="http://www.w3.org/2000/svg" version="1.1" viewBox="0 0 377.81 520.43">
  <defs>
    <style>
      .cls-1 {
        fill: #272727;
        stroke-width: 0px;
      }
    </style>
  </defs>
  <path class="cls-1" d="M0,245.93v116.03c.73-20.96,11.91-41.08,31.41-52.34,4.22-2.44,8.61-4.31,13.08-5.68-4.47-1.37-8.86-3.24-13.08-5.68-19.5-11.26-30.68-31.38-31.41-52.34Z"/>
  <circle class="cls-1" cx="167.04" cy="303.94" r="31.45"/>
  <path class="cls-1" d="M365.43,298.26c-19.29-11.13-30.41-30.94-31.36-51.65v-.69c0,.11-.02.23-.02.34,0-.11-.02-.23-.02-.34v.69c-.95,20.71-12.08,40.52-31.36,51.65-4.22,2.44-8.61,4.31-13.08,5.68,4.47,1.37,8.86,3.24,13.08,5.68,19.29,11.13,30.41,30.94,31.36,51.65v.69c0-.11.02-.23.02-.34,0,.11.02.23.02.34v-.69c.95-20.71,12.08-40.52,31.36-51.65,4.22-2.44,8.61-4.31,13.08-5.68-4.47-1.37-8.86-3.24-13.08-5.68Z"/>
  <path class="cls-1" d="M323,208.09c7.1,10.34,10.66,21.91,11.07,33.4v-120.74h0V0c-.36,9.94-3.07,19.93-8.39,29.14-17.37,30.08-55.84,40.39-85.92,23.02-4.22-2.44-8.04-5.3-11.46-8.49,1.05,4.56,1.62,9.29,1.62,14.17,0,34.74-28.15,62.89-62.89,62.9h0c-34.73,0-62.89-28.16-62.89-62.9,0-4.87.57-9.61,1.62-14.17-3.42,3.19-7.24,6.05-11.46,8.49-30.08,17.37-68.55,7.06-85.92-23.02C3.08,19.93.37,9.94,0,0v120.74h0v120.74c.36-9.94,3.07-19.93,8.39-29.14,17.37-30.08,55.84-40.39,85.92-23.02,4.22,2.44,8.04,5.3,11.46,8.49-1.05-4.56-1.62-9.29-1.62-14.17,0-34.73,28.16-62.89,62.89-62.9,34.73,0,62.89,28.16,62.89,62.9,0,4.87-.57,9.61-1.62,14.17,6.32-5.89,14-10.68,23.08-13.71,26.35-8.78,55.9,1.08,71.61,23.99Z"/>
  <circle class="cls-1" cx="167.04" cy="488.98" r="31.45"/>
</svg>